<!-- Pedro Antonio Messias Lemos -->
<svg>
	<circle cx="461.614105" cy="416.352509" r="2.500000" fill="coral" stroke="deeppink"/>
	<circle cx="266.355927" cy="436.589783" r="2.500000" fill="coral" stroke="deeppink"/>
	<circle cx="357.792938" cy="380.019989" r="2.500000" fill="coral" stroke="deeppink"/>
	<circle cx="427.564026" cy="422.088623" r="2.500000" fill="coral" stroke="deeppink"/>
	<circle cx="419.332703" cy="334.193512" r="2.500000" fill="coral" stroke="deeppink"/>
	<circle cx="345.677460" cy="117.492561" r="2.500000" fill="coral" stroke="deeppink"/>
	<circle cx="261.411530" cy="59.498104" r="2.500000" fill="coral" stroke="deeppink"/>
	<circle cx="189.603592" cy="49.366955" r="2.500000" fill="coral" stroke="deeppink"/>
	<circle cx="63.156013" cy="202.637329" r="2.500000" fill="coral" stroke="deeppink"/>
	<circle cx="117.408989" cy="98.364403" r="2.500000" fill="coral" stroke="deeppink"/>
	<circle cx="63.067753" cy="103.144707" r="2.500000" fill="coral" stroke="deeppink"/>
	<circle cx="58.072330" cy="65.703682" r="2.500000" fill="coral" stroke="deeppink"/>
	<circle cx="115.113617" cy="155.429352" r="2.500000" fill="coral" stroke="deeppink"/>
	<circle cx="167.715546" cy="352.409302" r="2.500000" fill="coral" stroke="deeppink"/>
	<circle cx="478.902954" cy="359.272308" r="2.500000" fill="coral" stroke="deeppink"/>
	<circle cx="487.472595" cy="482.825623" r="2.500000" fill="coral" stroke="deeppink"/>
	<rect x="165.809647" y="453.253510" width="30.000000" height="35.000000" fill="darkslategray" stroke="ghostwhite"/>
	<rect x="250.000000" y="470.000000" width="30.000000" height="35.000000" fill="darkslategray" stroke="ghostwhite"/>
	<rect x="46.746502" y="334.190369" width="30.000000" height="35.000000" fill="darkslategray" stroke="ghostwhite"/>
	<rect x="94.436508" y="405.563507" width="30.000000" height="35.000000" fill="darkslategray" stroke="ghostwhite"/>
	<rect x="334.190369" y="453.253510" width="30.000000" height="35.000000" fill="darkslategray" stroke="ghostwhite"/>
	<rect x="405.563507" y="405.563507" width="30.000000" height="35.000000" fill="darkslategray" stroke="ghostwhite"/>
	<rect x="453.253510" y="165.809647" width="30.000000" height="35.000000" fill="darkslategray" stroke="ghostwhite"/>
	<rect x="405.563507" y="94.436508" width="30.000000" height="35.000000" fill="darkslategray" stroke="ghostwhite"/>
	<rect x="334.190369" y="46.746502" width="30.000000" height="35.000000" fill="darkslategray" stroke="ghostwhite"/>
	<rect x="250.000000" y="30.000000" width="30.000000" height="35.000000" fill="darkslategray" stroke="ghostwhite"/>
	<rect x="165.809647" y="46.746502" width="30.000000" height="35.000000" fill="darkslategray" stroke="ghostwhite"/>
	<rect x="94.436508" y="94.436508" width="30.000000" height="35.000000" fill="darkslategray" stroke="ghostwhite"/>
	<rect x="46.746502" y="165.809647" width="30.000000" height="35.000000" fill="darkslategray" stroke="ghostwhite"/>
	<rect x="30.000000" y="250.000000" width="30.000000" height="35.000000" fill="darkslategray" stroke="ghostwhite"/>
	<rect x="453.253510" y="334.190369" width="30.000000" height="35.000000" fill="darkslategray" stroke="ghostwhite"/>
	<rect x="470.000000" y="250.000000" width="30.000000" height="35.000000" fill="darkslategray" stroke="ghostwhite"/>
</svg>